<svg width="90" height="116" viewBox="0 0 90 116" fill="none" xmlns="http://www.w3.org/2000/svg">
<path opacity="0.2" fill-rule="evenodd" clip-rule="evenodd" d="M85.5938 58.4234C88.3552 58.4234 90.5938 56.1848 90.5938 53.4234V5C90.5938 2.23858 88.3552 0 85.5938 0H47.331C44.5695 0 42.331 2.23858 42.331 5V53.4234C42.331 54.5549 42.7069 55.5987 43.3406 56.4366C42.4414 55.5697 41.2183 55.0365 39.8706 55.0365H4.99469C2.23327 55.0365 -0.00531006 57.2751 -0.00531006 60.0365V111C-0.00531006 113.761 2.23326 116 4.99468 116H39.8706C42.632 116 44.8706 113.761 44.8706 111V60.0365C44.8706 58.9049 44.4947 57.8612 43.861 57.0232C44.7601 57.8902 45.9833 58.4234 47.331 58.4234H85.5938Z" fill="#37FF68"/>
</svg>